<svg width="618" height="102" xmlns="http://www.w3.org/2000/svg" xmlns:xlink="http://www.w3.org/1999/xlink" overflow="hidden"><defs><clipPath id="clip0"><rect x="0" y="0" width="618" height="102"/></clipPath></defs><g clip-path="url(#clip0)"><rect x="0" y="0" width="618" height="102.194" fill="#FFFFFF"/><rect x="0" y="0" width="618" height="101.193" fill="#FFFFFF"/><path d="M192.523 51.0978 206.05 51.3095 206.003 54.314 192.477 54.1023ZM204.598 48.2815 213.524 52.9291 204.457 57.2951Z"/><rect x="95.5" y="4.50857" width="97" height="96.1831" stroke="#000000" stroke-width="1.33297" stroke-miterlimit="8" fill="#FFFFFF"/><text font-family="Times New Roman,Times New Roman_MSFontService,sans-serif" font-weight="400" font-size="15" transform="matrix(1 0 0 1.00191 107.024 31)">Convolution<tspan font-size="15" x="30.905" y="16.9676">&amp;</tspan><tspan font-size="15" x="0.413223" y="34.9334">MaxPooling</tspan><tspan font-size="15" x="16.6622" y="52.8991">Layers</tspan></text><rect x="213.5" y="13.5257" width="72.9999" height="79.1506" stroke="#000000" stroke-width="1.33297" stroke-miterlimit="8" fill="#FFFFFF"/><text font-family="Times New Roman,Times New Roman_MSFontService,sans-serif" font-weight="400" font-size="15" transform="matrix(1 0 0 1.00191 229.787 49)">LSTM<tspan font-size="15" x="-0.333237" y="16.9676">Layers</tspan></text><rect x="304.5" y="29.5562" width="95" height="48.0916" stroke="#000000" stroke-width="1.33297" stroke-miterlimit="8" fill="#FFFFFF"/><text font-family="Times New Roman,Times New Roman_MSFontService,sans-serif" font-weight="400" font-size="15" transform="matrix(1 0 0 1.00191 323.915 49)">Attention<tspan font-size="15" x="1.91946" y="16.9676">Network</tspan></text><rect x="26" y="30.0572" width="55" height="44.0839" fill="#FFFFFF"/><text font-family="Times New Roman,Times New Roman_MSFontService,sans-serif" font-weight="400" font-size="15" transform="matrix(1 0 0 1.00191 35.4822 44)">Tweet<tspan font-size="15" x="-1.57957" y="16.9676">Vector</tspan></text><rect x="534" y="10.0191" width="79.9999" height="34.0648" fill="#FFFFFF"/><text font-family="Times New Roman,Times New Roman_MSFontService,sans-serif" font-weight="400" font-size="15" transform="matrix(1 0 0 1.00191 543.057 24)">Subjective</text><rect x="537" y="66.1259" width="70" height="24.0457" fill="#FFFFFF"/><text font-family="Times New Roman,Times New Roman_MSFontService,sans-serif" font-weight="400" font-size="15" transform="matrix(1 0 0 1.00191 543.79 80)">Objective</text><path d="M0.00192844-1.49959 6.2974-1.4915 6.29355 1.50769-0.00192844 1.49959ZM4.80166-4.49262 13.7934 0.017738 4.79009 4.50495Z" transform="matrix(1 0 0 -1.00191 81.5 52.6178)"/><path d="M286.533 51.098 297.166 51.3331 297.1 54.3373 286.467 54.1022ZM295.733 48.2958 304.629 53.0009 295.535 57.3083Z"/><path d="M0.000455355-1.4996 12.2048-1.49589 12.2039 1.5033-0.000455355 1.4996ZM10.7061-4.49554 19.7023 0.00598264 10.7034 4.50204Z" transform="matrix(1 0 0 -1.00191 399.5 53.608)"/><path d="M1.19525-0.905631 16.2454 18.9576 13.8549 20.7688-1.19525 0.905631ZM17.7303 15.9511 19.5783 25.8394 10.5588 21.3848Z" transform="matrix(1 0 0 -1.00191 514.5 53.4411)"/><path d="M515.6 52.5813 533.723 72.195 531.522 74.2363 513.4 54.6227ZM534.905 69.0511 537.716 78.7283 528.303 75.1751Z"/><rect x="419.5" y="22.5429" width="95" height="62.1183" stroke="#000000" stroke-width="1.33297" stroke-miterlimit="8" fill="#FFFFFF"/><text font-family="Times New Roman,Times New Roman_MSFontService,sans-serif" font-weight="400" font-size="15" transform="matrix(1 0 0 1.00191 451.02 41)">Fully <tspan font-size="15" x="-15.9091" y="16.9676">Connected</tspan><tspan font-size="15" x="-1.66623" y="34.9334">Layer</tspan></text></g></svg>